<?xml version="1.0" encoding="UTF-8"?>
<!DOCTYPE svg PUBLIC "-//W3C//DTD SVG 1.1//EN" "http://www.w3.org/Graphics/SVG/1.1/DTD/svg11.dtd">
<!-- Creator: CorelDRAW -->
<svg xmlns="http://www.w3.org/2000/svg" xml:space="preserve" width="3.8425mm" height="3.8802mm" version="1.1" style="shape-rendering:geometricPrecision; text-rendering:geometricPrecision; image-rendering:optimizeQuality; fill-rule:evenodd; clip-rule:evenodd"
viewBox="0 0 5.71 5.76"
 xmlns:xlink="http://www.w3.org/1999/xlink"
 xmlns:xodm="http://www.corel.com/coreldraw/odm/2003">
 <defs>
  <style type="text/css">
   <![CDATA[
    .fil1 {fill:#FFFFFF}
    .fil0 {fill:#FFFFFF}
   ]]>
  </style>
 </defs>
 <g id="Layer_x0020_1">
  <metadata id="CorelCorpID_0Corel-Layer"/>
  <g id="_2916490001680">
   <path class="fil0" d="M2.72 5.72l0.73 -1.36c0.03,-0.06 0.04,-0.13 0.02,-0.2l-1.12 -4.11c-0.02,-0.07 -0.11,-0.08 -0.14,-0.02l-2.2 4.1c-0.03,0.05 0.01,0.11 0.07,0.11l1.14 0c0.03,0 0.05,-0.02 0.07,-0.04l0.5 -0.93c0.03,-0.06 0.12,-0.05 0.14,0.02l0.65 2.4c0.02,0.07 0.11,0.08 0.14,0.02z"/>
   <path class="fil1" d="M4.48 4.26l1.15 0c0.05,0 0.09,-0.05 0.07,-0.1l-0.94 -3.49c-0.02,-0.07 -0.11,-0.08 -0.14,-0.02l-0.73 1.36c-0.03,0.06 -0.04,0.13 -0.02,0.2l0.53 1.99c0.01,0.03 0.04,0.06 0.08,0.06z"/>
  </g>
 </g>
</svg>
